<svg width="194" height="233" viewBox="0 0 194 233" fill="none" xmlns="http://www.w3.org/2000/svg">
<path d="M97.0001 150L54.0001 75L140 75L97.0001 150Z" fill="#2873DC"/>
<path d="M97 0L140 75H54.0001L97 0Z" fill="#4BB4FF"/>
<path d="M97 150L140.301 189.75H53.6987L97 150Z" fill="#1C346E"/>
<path d="M140 75L97 150L194 122L140 75Z" fill="#315DA6"/>
<path d="M54 75L97 150L0 122L54 75Z" fill="#387EE6"/>
<path d="M140 75L175 36.9961L194 122L140 75Z" fill="#2F77DE"/>
<path d="M54.0001 75L19.0001 37L0.00012207 122L54.0001 75Z" fill="#50B5FF"/>
<path d="M140.3 189.75L97 150L194 122L140.3 189.75Z" fill="#1D4282"/>
<path d="M53.7001 189.75L97 150L0 122L53.7001 189.75Z" fill="#335CA0"/>
<path d="M140 75L97.0001 0L175 37L140 75Z" fill="#4898FF"/>
<path d="M54.0001 75L97.0001 0L19.0001 37.5L54.0001 75Z" fill="#6CC1FF"/>
<rect x="54" y="200" width="87" height="33" rx="4" fill="#2873DC"/>
</svg>
